<svg width="33" height="33" viewBox="0 0 33 33" fill="none" xmlns="http://www.w3.org/2000/svg">
<path fill-rule="evenodd" clip-rule="evenodd" d="M2.46885 32.6965L2.8519 31.7728C3.20424 31.9189 3.59138 32 4 32H6.08334V33H4C3.45763 33 2.94048 32.8921 2.46885 32.6965ZM26.9167 33V32H29C29.4086 32 29.7958 31.9189 30.1481 31.7728L30.5312 32.6965C30.0595 32.8921 29.5424 33 29 33H26.9167ZM33 6.08333H32V4C32 3.59138 31.9189 3.20424 31.7728 2.8519L32.6965 2.46885C32.8921 2.94048 33 3.45763 33 4V6.08333ZM6.08333 0H4C3.45763 0 2.94048 0.107945 2.46885 0.303522L2.8519 1.22725C3.20424 1.08114 3.59138 1 4 1H6.08333V0ZM0 26.9167H1V29C1 29.4086 1.08114 29.7958 1.22725 30.1481L0.303522 30.5312C0.107945 30.0595 0 29.5424 0 29V26.9167ZM0 22.75H1V18.5833H0V22.75ZM0 14.4167H1V10.25H0V14.4167ZM0 6.08334H1V4C1 3.59138 1.08114 3.20424 1.22725 2.8519L0.303522 2.46885C0.107945 2.94048 0 3.45763 0 4V6.08334ZM10.25 0V1H14.4167V0H10.25ZM18.5833 0V1H22.75V0H18.5833ZM26.9167 0V1H29C29.4086 1 29.7958 1.08114 30.1481 1.22725L30.5312 0.303522C30.0595 0.107945 29.5424 0 29 0H26.9167ZM33 10.25H32V14.4167H33V10.25ZM33 18.5833H32V22.75H33V18.5833ZM33 26.9167H32V29C32 29.4086 31.9189 29.7958 31.7728 30.1481L32.6965 30.5312C32.8921 30.0595 33 29.5424 33 29V26.9167ZM22.75 33V32H18.5833V33H22.75ZM14.4167 33V32H10.25V33H14.4167Z" fill="#5C5C5C"/>
<path d="M16 13H17V20H16V13Z" fill="#5C5C5C"/>
<path d="M20 16V17H13V16H20Z" fill="#5C5C5C"/>
</svg>
