<svg width="14" height="15" viewBox="0 0 14 15" fill="none" xmlns="http://www.w3.org/2000/svg">
<path d="M12.25 3.88889L11.5997 12.6581C11.5728 13.0225 11.4035 13.3636 11.1258 13.6126C10.8482 13.8616 10.4829 14 10.1035 14H3.8965C3.5171 14 3.1518 13.8616 2.87416 13.6126C2.59653 13.3636 2.42719 13.0225 2.40025 12.6581L1.75 3.88889M5.5 6.77778V11.1111M8.5 6.77778V11.1111M9.25 3.88889V1.72222C9.25 1.53068 9.17098 1.34698 9.03033 1.21153C8.88968 1.07609 8.69891 1 8.5 1H5.5C5.30109 1 5.11032 1.07609 4.96967 1.21153C4.82902 1.34698 4.75 1.53068 4.75 1.72222V3.88889M1 3.88889H13" stroke="white" stroke-linecap="round" stroke-linejoin="round"/>
</svg>
