<svg width="13" height="13" viewBox="0 0 13 13" fill="none" xmlns="http://www.w3.org/2000/svg">
<path d="M3.28749 12.3232C3.6631 12.2179 4.00582 12.0187 4.28343 11.7443L12.5464 3.46875C12.8369 3.17665 13 2.78118 13 2.36891C13 1.95665 12.8369 1.56117 12.5464 1.26908L11.7105 0.440868C11.4147 0.1579 11.0214 0 10.6123 0C10.2032 0 9.80991 0.1579 9.51411 0.440868L1.25116 8.70754C0.976688 8.98373 0.780305 9.32792 0.682051 9.70496L0.0240223 12.1629C-0.00719691 12.2752 -0.00800098 12.3937 0.0216923 12.5064C0.0513856 12.6191 0.110505 12.7218 0.192976 12.8041C0.318842 12.928 0.487775 12.9982 0.664267 13L3.28749 12.3232ZM3.65207 11.112C3.48814 11.2792 3.28237 11.3991 3.05629 11.4593L2.19374 11.6909L1.10169 11.8983L1.30451 10.8003L1.53571 9.9365C1.59791 9.71095 1.71739 9.50538 1.88251 9.33983L2.22042 9.01033L3.98998 10.7825L3.65207 11.112ZM4.62133 10.1502L2.85177 8.37803L8.61599 2.60491L10.3856 4.37711L4.62133 10.1502ZM11.915 2.84536L11.0169 3.74482L9.24734 1.97262L10.1455 1.06425C10.2073 1.00211 10.2807 0.952797 10.3616 0.91915C10.4425 0.885502 10.5292 0.868181 10.6168 0.868181C10.7043 0.868181 10.791 0.885502 10.8719 0.91915C10.9528 0.952797 11.0262 1.00211 11.088 1.06425L11.915 1.90137C12.0391 2.02706 12.1086 2.19665 12.1086 2.37337C12.1086 2.55008 12.0391 2.71967 11.915 2.84536Z" fill="white"/>
</svg>
