<svg width="14" height="3" viewBox="0 0 14 3" fill="none" xmlns="http://www.w3.org/2000/svg">
<path d="M1.78238 0.195618C2.50275 0.195618 3.08672 0.779594 3.08672 1.49997C3.08672 2.22034 2.50275 2.80431 1.78238 2.80431C1.062 2.80431 0.478027 2.22034 0.478027 1.49997C0.478027 0.779594 1.062 0.195618 1.78238 0.195618Z" fill="white"/>
<path d="M6.99967 0.195618C7.72004 0.195618 8.30402 0.779594 8.30402 1.49997C8.30402 2.22034 7.72004 2.80431 6.99967 2.80431C6.2793 2.80431 5.69532 2.22034 5.69532 1.49997C5.69532 0.779594 6.2793 0.195618 6.99967 0.195618Z" fill="white"/>
<path d="M12.2173 0.195618C12.9377 0.195618 13.5216 0.779594 13.5216 1.49997C13.5216 2.22034 12.9377 2.80431 12.2173 2.80431C11.4969 2.80431 10.9129 2.22034 10.9129 1.49997C10.9129 0.779594 11.4969 0.195618 12.2173 0.195618Z" fill="white"/>
</svg>
