<svg width="20" height="20" viewBox="0 0 20 20" fill="none" xmlns="http://www.w3.org/2000/svg">
<path d="M18.4029 11.5928C17.9073 11.2295 17.6454 10.6145 17.6454 10C17.6454 9.36853 17.8879 8.7745 18.3887 8.38977L19.7419 7.35008C19.9467 7.20018 19.9976 6.95023 19.8443 6.70018L17.7987 3.24997C17.6963 3.04977 17.3897 2.95021 17.1849 3.04977L15.5575 3.68625C14.9813 3.91161 14.34 3.80606 13.8038 3.49746C13.2604 3.18474 12.8377 2.66665 12.7537 2.04534L12.5314 0.399906C12.4804 0.200193 12.2757 0 12.0199 0H7.92875C7.67308 0 7.46833 0.200193 7.41736 0.399906L7.16533 2.03267C7.06794 2.66363 6.64904 3.18104 6.09926 3.50562C5.57186 3.81699 4.92574 3.91543 4.35536 3.69235L2.71238 3.04977C2.45667 2.95021 2.20095 3.04977 2.09859 3.24997L0.0529968 6.70023C-0.0488768 6.89989 0.00198798 7.20018 0.155351 7.35013L1.55324 8.39891C2.0576 8.77731 2.30345 9.36948 2.30345 10C2.30345 10.6315 2.06092 11.2255 1.56017 11.6102L0.206937 12.6499C0.0021321 12.7998 -0.0487324 13.0498 0.104535 13.2998L2.15013 16.75C2.25253 16.9502 2.55916 17.0498 2.76392 16.9502L4.3811 16.3177C4.96364 16.0899 5.61209 16.1969 6.15469 16.5081C6.69419 16.8175 7.11745 17.3264 7.21233 17.941L7.46842 19.6001C7.51981 19.8501 7.72409 20 7.97981 20H12.071C12.3267 20 12.5315 19.7998 12.5824 19.6001L12.8349 17.9666C12.9323 17.336 13.3509 16.819 13.9003 16.4946C14.4279 16.1832 15.0742 16.0846 15.6447 16.3078L17.2874 16.9502C17.5431 17.0498 17.7988 16.9502 17.9012 16.75L19.9468 13.2998C20.0492 13.1001 19.9978 12.7998 19.8444 12.6499L18.4029 11.5928ZM9.9744 13.5C7.97976 13.5 6.39464 11.9502 6.39464 10C6.39464 8.04975 7.97976 6.49998 9.9744 6.49998C11.969 6.49998 13.5542 8.04975 13.5542 10C13.5542 11.9502 11.969 13.5 9.9744 13.5Z" fill="#5C5C5C"/>
</svg>
